<?xml version="1.0" standalone="no"?>
<!DOCTYPE svg PUBLIC "-//W3C//DTD SVG 20010904//EN"
 "http://www.w3.org/TR/2001/REC-SVG-20010904/DTD/svg10.dtd">
<svg version="1.0" xmlns="http://www.w3.org/2000/svg"
 width="144.000000pt" height="144.000000pt" viewBox="0 0 144.000000 144.000000"
 preserveAspectRatio="xMidYMid meet">
<metadata>
Created by potrace 1.16, written by Peter Selinger 2001-2019
</metadata>
<g transform="translate(0.000000,144.000000) scale(0.100000,-0.100000)"
fill="#000000" stroke="none">
<path d="M541 1415 c-274 -77 -457 -263 -527 -536 -25 -97 -15 -300 19 -397
78 -219 240 -378 462 -453 62 -21 88 -24 225 -24 137 0 163 3 225 24 225 76
390 241 466 466 21 61 24 89 24 220 0 131 -3 159 -24 220 -75 222 -233 384
-453 462 -63 22 -93 26 -218 29 -107 3 -159 0 -199 -11z m314 -137 c200 -42
385 -226 434 -432 15 -63 15 -199 0 -262 -38 -160 -165 -319 -309 -386 -98
-46 -156 -59 -260 -59 -167 0 -293 52 -411 170 -117 117 -170 243 -170 406 0
153 51 283 156 393 148 156 343 216 560 170z"/>
<path d="M370 950 l0 -90 130 0 130 0 0 -305 0 -305 90 0 90 0 0 305 0 305
130 0 130 0 0 90 0 90 -350 0 -350 0 0 -90z"/>
</g>
</svg>
