<svg xmlns="http://www.w3.org/2000/svg" viewBox="0 0 1174.28 188.96"><title>CSpiderOfficialHorizontal</title><g id="שחור_לבן" data-name="שחור לבן"><g id="גוף"><path d="M144,55.75l-27.5,32.88L87.83,55.75,66.3,82.65l50.22,68.75,50.22-68.75Z" transform="translate(-0.52 -0.1)"/></g><g id="שמאל"><path d="M29.82,95.8q-14.67-.42-29.3.6A225.21,225.21,0,0,0,37,189.07a359.12,359.12,0,0,1-12-59.19c-.8-7-1.39-13.88-1.79-20.92l44.84-9.57A297.58,297.58,0,0,0,29.82,95.8ZM26.23,60.53A169.27,169.27,0,0,1,68.68.75,144.76,144.76,0,0,0,5.31,69.5l53.8,4.78ZM91.39.15c-.6-.73-13.33,6.9-25.11,20.33A107,107,0,0,0,51.34,42.6,57.43,57.43,0,0,0,62.1,49.77a57.76,57.76,0,0,0,15.54,5.38L63.3,41.4a98.91,98.91,0,0,1,8.37-17.34C80.48,9.6,92,.84,91.39.15Z" transform="translate(-0.52 -0.1)" fill="#9f1e1e" fill-rule="evenodd"/></g><g id="ימין"><path d="M204.4,95.8a297.58,297.58,0,0,0-38.26,3.59L211,109c-.4,7-1,13.92-1.8,20.92a359.09,359.09,0,0,1-12,59.19,225.67,225.67,0,0,0,26.3-52A225.18,225.18,0,0,0,233.7,96.4Q219.06,95.38,204.4,95.8ZM191.25,30A169.51,169.51,0,0,1,208,60.53L175.11,74.28l53.8-4.78A144.76,144.76,0,0,0,165.54.75,169.44,169.44,0,0,1,191.25,30ZM172.12,49.77a57.43,57.43,0,0,0,10.76-7.17,106.7,106.7,0,0,0-14.95-22.12C156.15,7.05,143.43-.58,142.83.15s10.91,9.45,19.72,23.91a98.91,98.91,0,0,1,8.37,17.34L156.58,55.15A57.76,57.76,0,0,0,172.12,49.77Z" transform="translate(-0.52 -0.1)" fill="#9f1e1e" fill-rule="evenodd"/></g><g id="ראש"><polygon points="116.32 12.79 90.69 40.4 116 67.47 141.63 39.86 116.32 12.79" fill="#9f1e1e"/></g></g><g id="Spider3D"><text transform="translate(269.41 136.71)" font-size="150.51" font-family="AirstrikeExpanded, Airstrike Expanded">Spider<tspan x="644.64" y="0" fill="#9f1e1e">3D</tspan></text></g></svg>