<svg id="שחור_לבן" data-name="שחור לבן" xmlns="http://www.w3.org/2000/svg" viewBox="0 0 390.03 316.08"><title>שחור לבן</title>

<g id="גוף"><path d="M302,188l-46,55-48-55-36,45,84,115,84-115Z" transform="translate(-61.97 -94.92)" fill="#fff"/></g>

    <g id="שמאל"><path d="M111,255q-24.52-.7-49,1a376.17,376.17,0,0,0,61,155,599.17,599.17,0,0,1-20-99c-1.35-11.72-2.34-23.22-3-35l75-16A497.69,497.69,0,0,0,111,255Zm-6-59A283.3,283.3,0,0,1,176,96,242.1,242.1,0,0,0,70,211l90,8ZM214,95c-1-1.22-22.3,11.53-42,34a179.26,179.26,0,0,0-25,37,96.73,96.73,0,0,0,44,21l-24-23a165.55,165.55,0,0,1,14-29C195.71,110.81,214.91,96.15,214,95Z" transform="translate(-61.97 -94.92)" fill="#9f1e1e" fill-rule="evenodd"/></g>

    <g id="ימין"><path d="M403,255a497.69,497.69,0,0,0-64,6l75,16c-.66,11.78-1.65,23.28-3,35a599.17,599.17,0,0,1-20,99,377.23,377.23,0,0,0,44-87,375.74,375.74,0,0,0,17-68Q427.51,254.29,403,255ZM381,145a283.05,283.05,0,0,1,28,51l-55,23,90-8A242.1,242.1,0,0,0,338,96,283.27,283.27,0,0,1,381,145Zm-32,33a96.78,96.78,0,0,0,18-12,179.26,179.26,0,0,0-25-37c-19.71-22.47-41-35.22-42-34s18.26,15.81,33,40a165.55,165.55,0,0,1,14,29l-24,23A97.2,97.2,0,0,0,349,178Z" transform="translate(-61.97 -94.92)" fill="#9f1e1e" fill-rule="evenodd"/></g>

    <g id="ראש"><polygon points="194.57 21.39 151.69 67.57 194.03 112.86 236.91 66.68 194.57 21.39" fill="#9f1e1e"/></g></svg>