<?xml version="1.0"?>
<svg xmlns="http://www.w3.org/2000/svg" xmlns:xlink="http://www.w3.org/1999/xlink" xmlns:svgjs="http://svgjs.com/svgjs" version="1.1" width="512" height="512" x="0" y="0" viewBox="0 0 36 36" style="enable-background:new 0 0 512 512" xml:space="preserve" class=""><g><path xmlns="http://www.w3.org/2000/svg" d="m8.377 4.167c6.917 0 11.667-3.583 15-3.583s10.333 1.916 10.333 17.249-9.417 17.583-13.083 17.583c-17.167.001-24.5-31.249-12.25-31.249z" fill="#efefef" data-original="#efefef" style="" class=""/><path xmlns="http://www.w3.org/2000/svg" d="m32.5 6c-.827 0-1.5-.673-1.5-1.5s.673-1.5 1.5-1.5 1.5.673 1.5 1.5-.673 1.5-1.5 1.5zm0-2c-.276 0-.5.224-.5.5s.224.5.5.5.5-.224.5-.5-.224-.5-.5-.5z" fill="#a4afc1" data-original="#a4afc1" style=""/><path xmlns="http://www.w3.org/2000/svg" d="m23.75 6.75-.5 1.24c-.3.76-1.04 1.26-1.85 1.26h-6.8c-.81 0-1.55-.5-1.85-1.26l-.5-1.24z" fill="#c3110f" data-original="#2fdf84" style="" class=""/><path xmlns="http://www.w3.org/2000/svg" d="m19.59 9.25-1.09 3h-1l-1.09-3z" fill="#c3110f" data-original="#2fdf84" style="" class=""/><g xmlns="http://www.w3.org/2000/svg" fill="#f3f3f1"><path d="m25.25 17-7.25 2.25-7.25-2.25 7.25-2.25z" fill="#f3f3f1" data-original="#f3f3f1" style="" class=""/><path d="m25.25 17v10l-7.25 2.25v-10z" fill="#f3f3f1" data-original="#f3f3f1" style="" class=""/><path d="m18 19.25v10l-7.25-2.25v-10z" fill="#f3f3f1" data-original="#f3f3f1" style="" class=""/></g><path xmlns="http://www.w3.org/2000/svg" d="m15 7.99-.5-1.24h-2.25l.5 1.24c.3.76 1.04 1.26 1.85 1.26h2.25c-.81 0-1.55-.5-1.85-1.26z" fill="#9f1e1e" data-original="#00b871" style="" class=""/><path xmlns="http://www.w3.org/2000/svg" d="m20.25 19.25 5-1.552v-.698l-7.25 2.25v10l2.25-.698z" fill="#d5dbe1" data-original="#d5dbe1" style=""/><path xmlns="http://www.w3.org/2000/svg" d="m13 27v-9.302l-2.25-.698v10l7.25 2.25v-.698z" fill="#d5dbe1" data-original="#d5dbe1" style=""/><path xmlns="http://www.w3.org/2000/svg" d="m6 6h24v1.5h-24z" fill="#000000" data-original="#000000" style="" class=""/><path xmlns="http://www.w3.org/2000/svg" d="m21.396 10h-6.792c-1.131 0-2.133-.679-2.553-1.729l-.497-1.243 1.393-.557.497 1.243c.19.477.646.786 1.16.786h6.792c.514 0 .97-.309 1.161-.786l.497-1.243 1.393.557-.497 1.243c-.421 1.05-1.423 1.729-2.554 1.729z" fill="#000000" data-original="#000000" style="" class=""/><path xmlns="http://www.w3.org/2000/svg" d="m18.5 13h-1c-.315 0-.597-.197-.705-.494l-1-2.75 1.41-.513.795 2.187.795-2.187 1.41.513-1 2.75c-.108.297-.39.494-.705.494z" fill="#000000" data-original="#000000" style="" class=""/><path xmlns="http://www.w3.org/2000/svg" d="m18 20c-.075 0-.15-.011-.222-.034l-7.25-2.25c-.314-.097-.528-.387-.528-.716s.214-.619.528-.716l7.25-2.25c.145-.045.3-.045.444 0l7.25 2.25c.314.097.528.387.528.716s-.214.619-.528.716l-7.25 2.25c-.072.023-.147.034-.222.034zm-4.72-3 4.72 1.465 4.72-1.465-4.72-1.465z" fill="#000000" data-original="#000000" style="" class=""/><path xmlns="http://www.w3.org/2000/svg" d="m18 30c-.075 0-.15-.011-.222-.034l-7.25-2.25c-.314-.097-.528-.387-.528-.716v-10h1.5v9.447l6.5 2.018 6.5-2.018v-9.447h1.5v10c0 .329-.214.619-.528.716l-7.25 2.25c-.072.023-.147.034-.222.034z" fill="#000000" data-original="#000000" style="" class=""/><path xmlns="http://www.w3.org/2000/svg" d="m17.25 19.25h1.5v10h-1.5z" fill="#000000" data-original="#000000" style="" class=""/></g></svg>
