<?xml version="1.0"?>
<svg xmlns="http://www.w3.org/2000/svg" xmlns:xlink="http://www.w3.org/1999/xlink" xmlns:svgjs="http://svgjs.com/svgjs" version="1.1" width="512" height="512" x="0" y="0" viewBox="0 0 36 36" style="enable-background:new 0 0 512 512" xml:space="preserve" class=""><g><g xmlns="http://www.w3.org/2000/svg" id="Layer_2"><g><path d="m34.904 20.402c-3.782-5.791-3.38-11.727-5.203-14.518s-7.256-7.603-20.093.782-9.572 17.5-7.566 20.569c9.388 14.373 39.561 3.423 32.862-6.833z" fill="#efefef" data-original="#efefef" style="" class=""/></g></g><g xmlns="http://www.w3.org/2000/svg" id="color"><g><path d="m18.75 6.75c-.83 0-1.5.67-1.5 1.5 0 .55-.45 1-1 1h-4.5c-.55 0-1-.45-1-1 0-.83-.67-1.5-1.5-1.5z" fill="#c3110f" data-original="#2fdf84" style="" class=""/></g><g><path d="m21.25 8.75v18.5c0 1.1-.9 2-2 2h-10.5c-1.1 0-2-.9-2-2v-18.5c0-1.1.9-2 2-2h.5c.83 0 1.5.67 1.5 1.5 0 .55.45 1 1 1h4.5c.55 0 1-.45 1-1 0-.83.67-1.5 1.5-1.5h.5c1.1 0 2 .9 2 2z" fill="#f3f3f1" data-original="#f3f3f1" style="" class=""/></g><g><path d="m13 8.25c0-.83-.67-1.5-1.5-1.5h-2.25c.83 0 1.5.67 1.5 1.5 0 .55.45 1 1 1h2.25c-.55 0-1-.45-1-1z" fill="#9f1e1e" data-original="#00b871" style="" class=""/></g><g><g><path d="m9 27.25v-18.5c0-.761.436-1.419 1.066-1.757-.235-.152-.514-.243-.816-.243h-.5c-1.1 0-2 .9-2 2v18.5c0 1.1.9 2 2 2h2.25c-1.1 0-2-.9-2-2z" fill="#d5dbe1" data-original="#d5dbe1" style="" class=""/></g></g><g><g><path d="m30.625 6.875h2v1h-2z" fill="#a4afc1" data-original="#a4afc1" style=""/></g><g><path d="m24.875 6.875h2v1h-2z" fill="#a4afc1" data-original="#a4afc1" style=""/></g><g><path d="m28.375 3.375h1v2h-1z" fill="#a4afc1" data-original="#a4afc1" style=""/></g><g><path d="m28.375 9.125h1v2h-1z" fill="#a4afc1" data-original="#a4afc1" style=""/></g></g><g><circle cx="23" cy="18" fill="#c3110f" r="6.25" data-original="#2fdf84" style="" class=""/></g><g><path d="m19 18c0-3.067 2.211-5.613 5.125-6.144-.365-.066-.74-.106-1.125-.106-3.452 0-6.25 2.798-6.25 6.25s2.798 6.25 6.25 6.25c.385 0 .76-.04 1.125-.106-2.914-.531-5.125-3.077-5.125-6.144z" fill="#9f1e1e" data-original="#00b871" style="" class=""/></g></g><g xmlns="http://www.w3.org/2000/svg" id="line"><g><path d="m23 25c-3.86 0-7-3.14-7-7s3.14-7 7-7 7 3.14 7 7-3.14 7-7 7zm0-12.5c-3.033 0-5.5 2.467-5.5 5.5s2.467 5.5 5.5 5.5 5.5-2.467 5.5-5.5-2.467-5.5-5.5-5.5z" fill="#000000" data-original="#000000" style="" class=""/></g><g><g><path d="m23.38 21.5h-2.13v-1.5h2.13c.342 0 .62-.278.62-.62 0-.352-.278-.63-.62-.63h-.76c-1.169 0-2.12-.951-2.12-2.12 0-1.179.951-2.13 2.12-2.13h2.13v1.5h-2.13c-.342 0-.62.278-.62.62 0 .352.278.63.62.63h.76c1.169 0 2.12.951 2.12 2.12 0 1.179-.951 2.13-2.12 2.13z" fill="#000000" data-original="#000000" style="" class=""/></g><g><path d="m22.25 13.75h1.5v1.5h-1.5z" fill="#000000" data-original="#000000" style="" class=""/></g><g><path d="m22.25 20.75h1.5v1.5h-1.5z" fill="#000000" data-original="#000000" style="" class=""/></g></g><g><g><path d="m16.25 10h-4.5c-.965 0-1.75-.785-1.75-1.75 0-.414-.337-.75-.75-.75h-.5v-1.5h.5c1.241 0 2.25 1.009 2.25 2.25 0 .138.112.25.25.25h4.5c.138 0 .25-.112.25-.25 0-1.241 1.009-2.25 2.25-2.25h.5v1.5h-.5c-.414 0-.75.336-.75.75 0 .965-.785 1.75-1.75 1.75z" fill="#000000" data-original="#000000" style="" class=""/></g><g><path d="m19.25 30h-10.5c-1.517 0-2.75-1.233-2.75-2.75v-18.5c0-1.517 1.233-2.75 2.75-2.75h10.5c1.516 0 2.75 1.233 2.75 2.75h-1.5c0-.689-.561-1.25-1.25-1.25h-10.5c-.69 0-1.25.561-1.25 1.25v18.5c0 .689.561 1.25 1.25 1.25h10.5c.689 0 1.25-.561 1.25-1.25h1.5c0 1.517-1.234 2.75-2.75 2.75z" fill="#000000" data-original="#000000" style="" class=""/></g></g></g></g></svg>
