<!DOCTYPE svg PUBLIC "-//W3C//DTD SVG 20010904//EN" "http://www.w3.org/TR/2001/REC-SVG-20010904/DTD/svg10.dtd">
<svg version="1.0" xmlns="http://www.w3.org/2000/svg" width="512px" height="512px" viewBox="0 0 5120 5120" preserveAspectRatio="xMidYMid meet">
<g id="layer101" fill="#010101" stroke="#010101" stroke-width="10" fill-rule="evenodd">
<path d="M2012 4264 C1997 4262,1958 4255,1925 4249 C1523 4176,1260 3764,1283 3245 C1305 2743,1553 2156,1909 1767 L1962 1710 1836 1710 L1710 1710 1710 1600 L1710 1490 1844 1487 L1978 1485 1844 1376 C1679 1244,1655 1208,1655 1105 C1655 999,1698 928,1793 877 L1835 855 2560 855 L3285 855 3336 883 C3426 933,3477 1028,3466 1126 C3457 1214,3424 1257,3274 1377 L3140 1485 3275 1487 L3410 1490 3410 1600 L3410 1710 3282 1709 L3155 1709 3196 1752 C3259 1817,3359 1945,3421 2040 C3700 2465,3854 2961,3836 3375 C3815 3838,3609 4150,3265 4240 C3195 4258,3145 4260,2615 4265 C2298 4267,2027 4267,2012 4264 M1939 4035 C1778 3987,1662 3887,1587 3730 C1458 3461,1462 3141,1600 2725 C1688 2458,1845 2172,2011 1975 C2096 1874,2135 1835,2229 1761 L2293 1710 2559 1710 L2826 1710 2890 1761 C2979 1832,3030 1882,3106 1971 C3441 2371,3662 2994,3620 3417 C3585 3774,3438 3987,3192 4038 C3157 4046,2946 4050,2565 4050 C2084 4050,1981 4047,1939 4035 M2457 3592 L2455 3485 2332 3482 L2210 3479 2210 3374 L2210 3270 2430 3270 L2650 3270 2675 3245 C2712 3208,2711 3158,2674 3120 C2652 3097,2640 3094,2537 3089 C2402 3083,2353 3063,2285 2988 C2228 2924,2205 2859,2212 2771 C2222 2635,2301 2540,2442 2496 C2457 2491,2460 2476,2460 2385 L2460 2280 2565 2280 L2670 2280 2670 2385 L2670 2490 2795 2490 L2920 2490 2920 2594 L2920 2698 2695 2701 C2483 2704,2469 2706,2449 2725 C2438 2736,2426 2762,2423 2781 C2419 2809,2422 2822,2443 2845 C2467 2874,2471 2875,2581 2880 C2713 2887,2765 2905,2827 2967 C2888 3028,2914 3090,2914 3180 C2914 3242,2910 3264,2886 3312 C2852 3381,2785 3443,2719 3465 L2670 3481 2670 3590 L2670 3700 2565 3700 L2460 3700 2457 3592 M2080 1070 L2658 1070C3151 1070,3239 1072,3249 1084 C3256 1093,3258 1104,3253 1113 C3248 1121,3143 1209,3018 1309 L2792 1490 2636 1490 C2550 1490,2477 1490,2475 1490 L2470 1490L2470 1490 L2465 1490C2462 1490,2430 1490,2393 1490 L2327 1490 2101 1309 C1976 1209,1871 1121,1866 1113 C1861 1104,1863 1093,1870 1084 C1879 1073,1907 1070,1981 1070 L2080 1070" />
</g>
<g id="layer102" fill="#a01d1d" stroke="#a01d1d" stroke-width="10" fill-rule="evenodd">
<path d="M2080 1070 L2080 1105C2080 1125,2086 1153,2093 1167 C2101 1182,2189 1259,2288 1339 C2388 1418,2470 1484,2470 1486 L2470 1490L2470 1490 L2465 1490C2462 1490,2430 1490,2393 1490 L2327 1490 2101 1309 C1976 1209,1871 1121,1866 1113 C1861 1104,1863 1093,1870 1084 C1879 1073,1907 1070,1981 1070 L2080 1070" />
</g>
<g id="layer103" fill="#c3110f" stroke="#c3110f" stroke-width="10" fill-rule="evenodd">
<path d="M2470 1490 L2470 1486C2470 1484,2388 1418,2288 1339 C2189 1259,2101 1182,2093 1167 C2086 1153,2080 1125,2080 1105 L2080 1070L2080 1070 L2658 1070C3151 1070,3239 1072,3249 1084 C3256 1093,3258 1104,3253 1113 C3248 1121,3143 1209,3018 1309 L2792 1490 2636 1490 C2550 1490,2477 1490,2475 1490 L2470 1490" />
</g>
<g id="layer104" fill="#554b4b" stroke="#554b4b" stroke-width="10" fill-rule="evenodd">
</g>
<g id="layer105" fill="#7d8184" stroke="#7d8184" stroke-width="10" fill-rule="evenodd">
</g>
<g id="layer106" fill="#a3abb8" stroke="#a3abb8" stroke-width="10" fill-rule="evenodd">
<path d="M4240 1240 L4240 1100 4310 1100 L4380 1100 4380 1240 L4380 1380 4310 1380 L4240 1380 4240 1240 " />
<path d="M3740 850 L3740 780 3880 780 L4020 780 4020 850 L4020 920 3880 920 L3740 920 3740 850 " />
<path d="M4550 900 L4555 900C4557 900,4560 873,4560 840 L4560 780 4700 780 L4840 780 4840 850 L4840 920 4720 920 C4654 920,4593 920,4585 920 L4570 920L4570 920 L4565 920C4562 920,4560 918,4560 916 C4560 914,4557 910,4555 906 L4550 900" />
<path d="M4240 420 L4240 280 4310 280 L4380 279 4375 415 L4370 550 4305 555 L4240 560 4240 420 " />
</g>
<g id="layer107" fill="#efefef" stroke="#efefef" stroke-width="10" fill-rule="evenodd">
<path d="M4550 900 L4555 906C4557 910,4560 914,4560 916 C4560 918,4562 920,4565 920 L4570 920L4570 920 L4599 968C4616 995,4642 1045,4658 1081 C4674 1116,4699 1183,4714 1229 C4729 1276,4750 1366,4761 1429 C4773 1497,4783 1614,4787 1715 C4790 1814,4787 1940,4780 2020 C4774 2094,4757 2219,4744 2298 C4731 2377,4706 2498,4689 2568 C4672 2638,4632 2773,4600 2870 C4568 2966,4519 3100,4490 3168 C4462 3237,4411 3347,4378 3413 C4344 3480,4297 3571,4272 3615 C4247 3659,4185 3758,4134 3835 C4083 3912,4002 4024,3954 4085 C3905 4145,3820 4241,3765 4299 C3710 4356,3615 4445,3555 4497 C3494 4549,3391 4627,3326 4671 C3260 4715,3155 4777,3091 4809 C3027 4841,2930 4884,2875 4904 C2821 4924,2727 4954,2666 4970 C2606 4986,2498 5006,2426 5015 C2327 5028,2254 5031,2130 5026 C2021 5022,1931 5013,1867 5000 C1813 4988,1721 4963,1663 4944 C1604 4925,1506 4885,1445 4855 C1384 4826,1294 4774,1245 4741 C1195 4708,1116 4648,1070 4607 C1024 4567,950 4495,907 4446 C864 4397,797 4310,759 4252 C720 4194,663 4096,632 4035 C602 3974,558 3875,534 3814 C511 3753,475 3645,456 3574 C437 3503,411 3397,400 3340 C389 3282,373 3183,365 3120 C356 3056,345 2944,340 2870 C334 2795,330 2642,330 2530 C330 2417,334 2250,340 2160 C346 2069,357 1936,365 1865 C373 1793,389 1683,400 1620 C411 1556,434 1451,450 1385 C467 1319,498 1211,520 1146 C542 1081,587 971,620 901 C653 832,713 725,754 665 C794 604,860 520,899 477 C939 435,1010 370,1058 334 C1105 299,1183 249,1230 225 C1278 200,1356 167,1405 150 C1454 134,1535 113,1585 104 C1653 91,1708 88,1815 92 C1935 97,1972 102,2080 133 C2148 152,2333 215,2490 272 C2646 330,2833 396,2904 419 C2976 442,3093 476,3164 494 C3236 513,3351 537,3420 549 C3488 561,3599 574,3665 580 C3731 585,3857 594,3945 599 C4058 606,4125 614,4175 630 C4213 642,4275 667,4312 687 C4349 706,4409 749,4445 783 C4482 816,4520 856,4531 871 L4550 900M2012 4264 C1997 4262,1958 4255,1925 4249 C1523 4176,1260 3764,1283 3245 C1305 2743,1553 2156,1909 1767 L1962 1710 1836 1710 L1710 1710 1710 1600 L1710 1490 1844 1487 L1978 1485 1844 1376 C1679 1244,1655 1208,1655 1105 C1655 999,1698 928,1793 877 L1835 855 2560 855 L3285 855 3336 883 C3426 933,3477 1028,3466 1126 C3457 1214,3424 1257,3274 1377 L3140 1485 3275 1487 L3410 1490 3410 1600 L3410 1710 3282 1709 L3155 1709 3196 1752 C3259 1817,3359 1945,3421 2040 C3700 2465,3854 2961,3836 3375 C3815 3838,3609 4150,3265 4240 C3195 4258,3145 4260,2615 4265 C2298 4267,2027 4267,2012 4264 M1939 4035 C1778 3987,1662 3887,1587 3730 C1458 3461,1462 3141,1600 2725 C1688 2458,1845 2172,2011 1975 C2096 1874,2135 1835,2229 1761 L2293 1710 2559 1710 L2826 1710 2890 1761 C2979 1832,3030 1882,3106 1971 C3441 2371,3662 2994,3620 3417 C3585 3774,3438 3987,3192 4038 C3157 4046,2946 4050,2565 4050 C2084 4050,1981 4047,1939 4035 M2457 3592 L2455 3485 2332 3482 L2210 3479 2210 3374 L2210 3270 2430 3270 L2650 3270 2675 3245 C2712 3208,2711 3158,2674 3120 C2652 3097,2640 3094,2537 3089 C2402 3083,2353 3063,2285 2988 C2228 2924,2205 2859,2212 2771 C2222 2635,2301 2540,2442 2496 C2457 2491,2460 2476,2460 2385 L2460 2280 2565 2280 L2670 2280 2670 2385 L2670 2490 2795 2490 L2920 2490 2920 2594 L2920 2698 2695 2701 C2483 2704,2469 2706,2449 2725 C2438 2736,2426 2762,2423 2781 C2419 2809,2422 2822,2443 2845 C2467 2874,2471 2875,2581 2880 C2713 2887,2765 2905,2827 2967 C2888 3028,2914 3090,2914 3180 C2914 3242,2910 3264,2886 3312 C2852 3381,2785 3443,2719 3465 L2670 3481 2670 3590 L2670 3700 2565 3700 L2460 3700 2457 3592 M4240 1240 L4240 1100 4310 1100 L4380 1100 4380 1240 L4380 1380 4310 1380 L4240 1380 4240 1240 M3740 850 L3740 780 3880 780 L4020 780 4020 850 L4020 920 3880 920 L3740 920 3740 850 " />
</g>

</svg>