<?xml version="1.0"?>
<svg xmlns="http://www.w3.org/2000/svg" xmlns:xlink="http://www.w3.org/1999/xlink" xmlns:svgjs="http://svgjs.com/svgjs" version="1.1" width="512" height="512" x="0" y="0" viewBox="0 0 36 36" style="enable-background:new 0 0 512 512" xml:space="preserve" class=""><g><path xmlns="http://www.w3.org/2000/svg" d="m8.377 31.833c6.917 0 11.667 3.583 15 3.583s10.333-1.916 10.333-17.249-9.417-17.584-13.083-17.584c-17.167 0-24.5 31.25-12.25 31.25z" fill="#efefef" data-original="#efefef" style="" class=""/><path xmlns="http://www.w3.org/2000/svg" d="m27.625 5.25h1v2h-1z" fill="#a4afc1" data-original="#a4afc1" style=""/><path xmlns="http://www.w3.org/2000/svg" d="m29.875 8.25h2v1h-2z" fill="#a4afc1" data-original="#a4afc1" style=""/><path xmlns="http://www.w3.org/2000/svg" d="m20.25 26.25h-11.75c-1.105 0-2-.895-2-2v-15.5c0-1.105.895-2 2-2h11.75c1.105 0 2 .895 2 2v15.5c0 1.105-.895 2-2 2z" fill="#f3f3f1" data-original="#f3f3f1" style="" class=""/><path xmlns="http://www.w3.org/2000/svg" d="m21.532 28.72-3.005.53.53-3.005 7.425-7.425c.391-.391.847-.567 1.237-.177l1.237 1.237c.391.391.391 1.024 0 1.414z" fill="#c3110f" data-original="#2fdf84" style="" class=""/><path xmlns="http://www.w3.org/2000/svg" d="m21.308 26.245 7.007-7.007-.595-.595c-.391-.391-.847-.214-1.237.177l-7.425 7.425-.53 3.005 2.322-.41z" fill="#9f1e1e" data-original="#00b871" style="" class=""/><path xmlns="http://www.w3.org/2000/svg" d="m8.75 24.25v-15.5c0-1.105.895-2 2-2h-2.25c-1.105 0-2 .895-2 2v15.5c0 1.105.895 2 2 2h2.25c-1.105 0-2-.895-2-2z" fill="#d5dbe1" data-original="#d5dbe1" style="" class=""/><path xmlns="http://www.w3.org/2000/svg" d="m18.527 30c-.197 0-.389-.078-.53-.22-.173-.173-.251-.42-.208-.66l.53-3.005c.027-.152.1-.292.208-.4l7.425-7.425c.316-.316.651-.514.996-.585.477-.102.939.045 1.302.408l1.237 1.237c.682.683.682 1.792 0 2.475l-7.424 7.425c-.109.108-.249.182-.4.208l-3.005.53c-.044.008-.087.012-.131.012zm1.228-3.392-.303 1.717 1.717-.303 7.257-7.258c.097-.098.097-.256 0-.354l-1.228-1.228c-.01.019-.085.066-.186.167z" fill="#000000" data-original="#000000" style="" class=""/><path xmlns="http://www.w3.org/2000/svg" d="m16.01 27h-7.26c-1.517 0-2.75-1.233-2.75-2.75v-15.5c0-1.517 1.233-2.75 2.75-2.75h11.5c1.517 0 2.75 1.233 2.75 2.75v10.06h-1.5v-10.06c0-.689-.561-1.25-1.25-1.25h-11.5c-.689 0-1.25.561-1.25 1.25v15.5c0 .689.561 1.25 1.25 1.25h7.26z" fill="#000000" data-original="#000000" style="" class=""/><path xmlns="http://www.w3.org/2000/svg" d="m9.75 14h9.5v1.5h-9.5z" fill="#000000" data-original="#000000" style="" class=""/><path xmlns="http://www.w3.org/2000/svg" d="m9.75 18h5.5v1.5h-5.5z" fill="#000000" data-original="#000000" style="" class=""/><path xmlns="http://www.w3.org/2000/svg" d="m9.75 10h4.5v1.5h-4.5z" fill="#000000" data-original="#000000" style="" class=""/></g></svg>
