<!DOCTYPE svg PUBLIC "-//W3C//DTD SVG 20010904//EN" "http://www.w3.org/TR/2001/REC-SVG-20010904/DTD/svg10.dtd">
<svg version="1.0" xmlns="http://www.w3.org/2000/svg" width="300px" height="48px" viewBox="0 0 3000 480" preserveAspectRatio="xMidYMid meet">
<g id="layer101" fill="#141314" stroke="none"> <!--שחור-->
<path d="M228 297 c-52 -76 -55 -84 -41 -102 8 -11 18 -26 22 -34 7 -11 17 -4 46 28 l38 41 35 -41 35 -41 23 29 c13 15 23 31 24 35 0 9 -110 162 -118 165 -4 1 -32 -35 -64 -80z"/>
<path d="M707 325 c17 -23 24 -24 106 -25 70 0 87 -3 87 -15 0 -12 -14 -15 -63 -15 -49 0 -68 -4 -80 -18 -23 -26 -21 -55 6 -80 21 -20 34 -22 152 -22 123 0 128 1 112 18 -13 13 -40 18 -105 22 -68 4 -87 8 -87 20 0 11 16 16 63 20 65 5 82 16 82 56 0 11 -10 30 -23 42 -21 20 -34 22 -146 22 l-122 0 18 -25z"/>
<path d="M999 328 c5 -13 23 -57 40 -98 17 -41 31 -76 31 -77 0 -2 53 -3 119 -3 130 0 145 6 139 56 -5 47 -48 69 -142 72 l-83 4 -16 34 c-15 30 -21 34 -57 34 -37 0 -39 -1 -31 -22z m146 -88 c3 -5 26 -10 51 -10 37 0 44 -3 44 -20 0 -17 -7 -20 -48 -20 -43 0 -50 3 -60 25 -7 14 -12 28 -12 30 0 9 19 5 25 -5z"/>
<path d="M1310 343 c0 -5 18 -48 38 -98 l38 -90 42 -3 c23 -2 42 -1 42 1 0 5 -52 130 -70 170 -11 22 -20 27 -52 27 -21 0 -38 -3 -38 -7z"/>
<path d="M1456 269 c20 -46 38 -92 41 -101 5 -16 20 -18 122 -18 123 0 141 6 141 45 0 34 -55 102 -102 127 -33 17 -65 23 -141 26 l-97 4 36 -83z m171 4 c24 -16 40 -54 28 -72 -3 -6 -23 -11 -45 -11 -40 0 -37 -4 -78 99 -4 11 2 12 33 7 21 -4 49 -14 62 -23z"/>
<path d="M1751 298 c11 -29 30 -74 41 -100 l20 -48 131 0 c129 0 130 0 112 20 -15 17 -31 20 -96 20 -67 0 -80 3 -89 19 -16 31 -13 43 9 31 11 -5 39 -10 62 -10 l42 0 -23 25 c-19 20 -33 25 -72 25 -26 0 -48 5 -48 10 0 6 36 10 88 10 l87 1 -28 24 c-26 23 -35 25 -142 25 l-115 0 21 -52z"/>
<path d="M2036 313 c8 -21 27 -66 41 -100 l25 -63 117 0 c126 0 141 5 141 50 0 34 -28 59 -74 67 l-37 6 37 38 38 39 -43 0 c-33 0 -52 -8 -88 -35 -25 -19 -49 -35 -53 -35 -3 0 -14 16 -23 35 -15 31 -21 35 -57 35 l-40 0 16 -37z m192 -83 c43 0 53 -6 45 -26 -3 -9 -21 -14 -52 -14 -41 0 -49 3 -59 25 -16 35 -15 37 7 25 11 -5 37 -10 59 -10z"/>
</g>
<g id="layer102" fill="#972123" stroke="none"> <!--אדום-->
<path d="M66 436 c-9 -14 -27 -60 -42 -102 -20 -62 -23 -79 -12 -85 16 -10 83 -10 118 0 22 7 19 9 -22 16 -46 7 -48 9 -48 39 1 17 7 59 14 94 7 34 12 62 11 62 -2 0 -10 -11 -19 -24z"/>
<path d="M506 394 c23 -118 22 -122 -33 -130 -38 -5 -44 -9 -28 -15 34 -13 115 -10 121 4 6 16 -40 165 -60 192 -12 16 -12 9 0 -51z"/>
<path d="M2366 325 c15 -23 22 -25 100 -25 45 0 86 -4 89 -10 4 -6 -17 -10 -56 -10 l-62 0 29 -22 c15 -13 48 -25 73 -28 32 -3 46 -10 46 -20 0 -12 -17 -16 -84 -18 -82 -3 -83 -3 -66 -22 16 -17 31 -20 112 -20 52 0 103 5 114 10 23 13 26 62 4 80 -9 7 -14 18 -12 24 6 17 -21 64 -42 76 -11 5 -74 10 -141 10 l-120 0 16 -25z"/>
<path d="M2681 299 c11 -30 30 -75 41 -101 l20 -48 110 0 c60 0 118 5 130 11 43 23 -3 111 -82 157 -38 23 -59 27 -143 30 l-98 4 22 -53z m178 -27 c58 -43 54 -82 -9 -82 -42 0 -49 9 -75 90 -7 22 -5 23 26 16 19 -3 45 -14 58 -24z"/>
<path d="M48 183 c-28 -4 -28 -4 -12 -35 19 -37 102 -128 117 -128 6 0 -1 12 -15 28 -27 30 -72 101 -67 106 2 2 18 11 34 19 l30 16 -30 -1 c-16 -1 -42 -3 -57 -5z"/>
<path d="M478 176 c17 -8 32 -20 32 -26 0 -16 -29 -60 -69 -104 -35 -38 -35 -38 -6 -19 39 27 76 68 104 116 21 34 21 37 4 37 -10 0 -36 3 -58 6 l-40 5 33 -15z"/>
<path d="M258 136 l-27 -33 33 -32 33 -32 26 33 26 33 -23 29 c-12 17 -27 31 -32 32 -5 1 -21 -12 -36 -30z"/>
<path d="M151 126 l-24 -13 37 -39 37 -39 -20 35 c-19 32 -19 36 -4 52 19 21 8 23 -26 4z"/>
<path d="M415 121 c3 -7 -3 -30 -14 -51 -11 -22 -19 -40 -17 -40 3 0 18 18 36 39 l31 40 -22 11 c-16 9 -20 9 -14 1z"/>
</g>


</svg>